<svg xmlns="http://www.w3.org/2000/svg" width="183" height="41" viewBox="0 0 183 41">
    <g fill="none" fill-rule="evenodd">
        <path fill="#FFF" d="M25.057 24.726c-.864.56-1.868.779-2.725 1.344-.966.544-2.304 1.169-2.565.984-.26-.182-.1-.44-.037-.671.542-1.284.481-2.802 1.262-3.976.369-.739.779-2.16 1.145-2.175.471-.027 1.949 1.525 2.603 2.682.24.53.923 1.201.317 1.812zm-.793-6.746c-.966-.955-2.618-2.791-3.19-2.44-.455.27-1.02 2.196-1.385 3.348-.71 1.719-1.192 3.379-1.654 5.209-.081.599-.357 1.4-.416 1.706-.058.313-.316 1.069-.39 1.385-.06.283-.485 1.685-.204 2.082.205.292.8.237 1.16.13 1.316-.309 2.134-.661 3.439-1.004.206-.112.478-.15.672-.238.912-.308 1.725-.865 2.6-1.263 1.245-.718 3.414-.923 3.474-2.798-.424-2.464-2.646-4.082-4.106-6.117z"/>
        <path d="M25.057 24.726c-.864.56-1.868.779-2.725 1.344-.966.544-2.304 1.169-2.565.984-.26-.182-.1-.44-.037-.671.542-1.284.481-2.802 1.262-3.976.369-.739.779-2.16 1.145-2.175.471-.027 1.949 1.525 2.603 2.682.24.53.923 1.201.317 1.812zm-.793-6.746c-.966-.955-2.618-2.791-3.19-2.44-.455.27-1.02 2.196-1.385 3.348-.71 1.719-1.192 3.379-1.654 5.209-.081.599-.357 1.4-.416 1.706-.058.313-.316 1.069-.39 1.385-.06.283-.485 1.685-.204 2.082.205.292.8.237 1.16.13 1.316-.309 2.134-.661 3.439-1.004.206-.112.478-.15.672-.238.912-.308 1.725-.865 2.6-1.263 1.245-.718 3.414-.923 3.474-2.798-.424-2.464-2.646-4.082-4.106-6.117z"/>
        <path fill="#FFF" d="M182.21 27.708h-1.816c-.41 0-.57-.223-.57-.593v-5.237c0-.828-.214-1.378-1.12-1.378-.648 0-1.455.294-2.01.771v5.86c0 .378-.154.577-.548.577h-1.851c-.337 0-.556-.18-.556-.534v-8.488c0-.37.14-.569.576-.569h1.61c.3 0 .512.081.553.413l.043.416a5.036 5.036 0 0 1 3.148-1.104c2.168 0 3.111 1.36 3.111 3.506v5.767c0 .394-.14.593-.57.593zm-13.862-6.75c-.353-.325-1.002-.672-1.59-.672-.964 0-1.87.786-1.87 2.615 0 1.222.313 2.676 1.811 2.676.703 0 1.415-.526 1.649-.828v-3.791zm3.347 6.75h-1.04c-1.166 0-1.633-.34-1.894-.91h-.035c-.535.611-1.788 1.166-2.76 1.166-2.832 0-4.148-2.249-4.148-4.868 0-3.482 2.162-5.253 4.331-5.253 1.098 0 1.986.511 2.397 1.103l.06-.431a.437.437 0 0 1 .454-.398h1.768c.284 0 .472.161.472.47v6.797c0 .193.078.331.3.331h.156c.276 0 .41.103.41.394v1.137c0 .302-.194.462-.47.462zm-10.748-.34c-1.042.478-1.851.596-3.01.596-2.995 0-4.823-1.794-4.823-4.907 0-3.187 1.91-5.214 5.039-5.214.926 0 1.813.137 2.739.53.175.076.251.157.251.356 0 .079-.015.14-.036.217l-.314 1.417c-.038.197-.14.27-.256.27-.076 0-.18-.038-.28-.073-.551-.213-1.117-.374-1.729-.374-1.534 0-2.363 1.024-2.363 2.715 0 1.788.867 2.756 2.227 2.756.846 0 1.222-.121 1.964-.416.082-.022.143-.053.219-.053.157 0 .234.112.274.252.098.352.413 1.252.413 1.572 0 .223-.155.281-.315.357zm-10.116.34h-1.772c-.411 0-.606-.138-.606-.577v-8.502c0-.393.253-.512.606-.512h1.772c.373 0 .576.103.576.512v8.502c0 .398-.182.577-.576.577zm-.928-10.728c-.74 0-1.587-.531-1.587-1.478 0-.966.78-1.52 1.587-1.52.787 0 1.575.554 1.575 1.5 0 .944-.826 1.498-1.575 1.498zm-2.868 1.412l-.297 1.852c-.035.21-.136.316-.312.316H146.323a1.98 1.98 0 0 0-.53-.06c-.65 0-1.319.271-1.811.771v5.883c0 .355-.16.554-.553.554h-1.846c-.358 0-.554-.18-.554-.554v-8.468c0-.466.232-.569.572-.569h1.595c.37 0 .55.103.567.398l.039.587c.71-.852 1.305-1.26 2.462-1.26.162 0 .376.043.551.073.157.042.22.126.235.26v.045c0 .058 0 .096-.015.172zm-12.067 1.71c-.986 0-1.635.79-1.774 1.718h3.289c0-.847-.495-1.718-1.515-1.718zm3.703 3.585h-5.518c.241 1.243 1.342 1.93 2.542 1.93.864 0 1.691-.193 2.48-.509a.529.529 0 0 1 .238-.057c.175 0 .271.118.312.271.08.335.375 1.24.375 1.531 0 .262-.177.335-.375.44-1.04.469-2.42.671-3.56.671-3.133 0-5.119-1.936-5.119-5.074 0-3.062 2.066-5.067 5.097-5.067 1.262 0 2.32.474 3.052 1.26.98 1.042 1.181 2.403 1.181 3.777v.264c0 .464-.218.563-.705.563zm-10.695 4.021h-1.77c-.41 0-.606-.138-.606-.577v-5.273c0-.786-.182-1.415-1.067-1.415-.688 0-1.494.37-2.027.828v5.86c0 .417-.177.577-.57.577h-1.615c-.414 0-.61-.138-.61-.577v-5.273c0-.786-.174-1.415-1.064-1.415-.65 0-1.32.328-1.867.828v5.86c0 .417-.183.577-.573.577h-1.768c-.418 0-.614-.138-.614-.577v-8.502c0-.35.221-.512.551-.512h1.612c.335 0 .533.119.58.413l.03.374c.788-.668 1.816-1.061 2.82-1.061 1.32 0 2.046.648 2.454 1.317.89-.882 2.188-1.317 3.429-1.317 1.534 0 2.5.866 2.855 1.671.355.79.394 1.672.394 3.07v4.547c0 .417-.175.577-.574.577zm-21.524-9.079a62.528 62.528 0 0 1-.353-1.142h-.043c-.098.356-.215.749-.352 1.162l-1.24 3.859h3.226l-1.238-3.879zm5.845 9.08h-2.206c-.471 0-.643-.224-.763-.555l-.792-2.283h-4.86l-.79 2.364c-.075.25-.233.473-.59.473h-2.243c-.215 0-.316-.138-.316-.321 0-.072 0-.152.043-.233l4.684-12.618c.117-.298.296-.484.67-.484h2.026c.398 0 .61.167.71.423l4.78 12.537a.976.976 0 0 1 .064.303c0 .233-.14.393-.417.393zm-18.185-7.545c-1.459 0-1.93 1.263-1.93 2.696 0 1.458.411 2.774 1.872 2.774 1.453 0 1.924-1.292 1.924-2.733 0-1.455-.413-2.737-1.866-2.737zm-.102 7.8c-3.328 0-4.88-2.146-4.88-5.074 0-2.902 1.829-5.047 5.017-5.047 3.33 0 4.887 2.145 4.887 5.073 0 2.902-1.835 5.048-5.024 5.048zm-6.983-.256H85.12c-.291 0-.528-.16-.528-.534V14.398c0-.393.176-.515.469-.55l1.867-.251h.202c.274 0 .41.164.41.485v13.072c0 .375-.196.554-.513.554zm-7.567-6.815c-.372-.356-.966-.63-1.537-.63-.512 0-.943.218-1.24.508-.532.538-.688 1.435-.688 2.145s.156 1.502.672 1.993c.313.31.782.437 1.18.437.607 0 1.293-.379 1.613-.708v-3.745zM77.567 32.01c-1.024 0-1.992-.152-3.03-.587-.256-.101-.352-.217-.352-.433 0-.122.034-.23.059-.334l.33-1.109c.08-.247.142-.387.295-.387.143 0 .237.022.378.076.729.281 1.492.453 2.164.453 1.794 0 2.049-.923 2.049-2.119v-.717c-.552.462-1.572.889-2.362.889-1.185 0-2.183-.373-2.913-1.103-.846-.82-1.265-2.108-1.265-3.543 0-2.653 1.538-5.211 4.434-5.211.472 0 .91.095 1.337.29.317.141.728.454.944.771l.04-.431c.02-.265.18-.398.51-.398h1.675c.411 0 .55.161.55.554v8.265c0 3.304-1.436 5.074-4.843 5.074zm-6.62-4.302h-1.812c-.408 0-.566-.223-.566-.593v-5.237c0-.828-.216-1.378-1.121-1.378-.654 0-1.46.294-2.01.771v5.86c0 .378-.159.577-.552.577h-1.85c-.337 0-.551-.18-.551-.534v-8.488c0-.37.138-.569.573-.569h1.616c.291 0 .51.081.549.413l.042.416a5.04 5.04 0 0 1 3.145-1.104c2.165 0 3.108 1.36 3.108 3.506v5.767c0 .394-.133.593-.57.593zM55.111 18.63a30.878 30.878 0 0 1-.355-1.142h-.039c-.1.356-.22.749-.354 1.162l-1.24 3.859h3.229l-1.24-3.879zm5.845 9.08h-2.207c-.469 0-.65-.224-.767-.555l-.786-2.283h-4.862l-.789 2.364c-.08.25-.235.473-.59.473H48.71c-.214 0-.313-.138-.313-.321 0-.072 0-.152.038-.233l4.688-12.618c.116-.298.297-.484.668-.484h2.025c.396 0 .612.167.71.423l4.786 12.537c.036.119.058.223.058.303 0 .233-.14.393-.414.393zm-31.093-.224c-4.008 2.973-8.212 5.458-13.129 6.237-.74.025-1.513-.207-1.97-.906-1.489-2.668.072-5.724.35-8.487.255-1.322.9-2.47 1.38-3.707l3.353-7.571c.524-.954 1.235-2.42 1.858-2.76.612-.336 1.642.828 2.282 1.416l.909 1.146a484.407 484.407 0 0 1 3.629 5.207c.99 1.879 2.17 3.697 2.72 5.757.279 1.383-.236 2.766-1.382 3.668zm3.512-6.863c-.5-2.55-2.374-4.57-3.9-6.662-2.155-3.008-5.447-4.746-8.4-6.549-.602-.313-1.491-.802-1.899-.71-.41.085-.526.497-.67.71a97.644 97.644 0 0 1-2.723 5.522c-1.042 2.752-1.733 5.7-2.604 8.48-1.299 2.938-2.668 6.135-2.403 9.43.145 1.33.196 2.783 1.34 3.627 1.38.808 3.122 1.007 4.775.95 4.101-.37 8.421-.428 11.792-2.685.203-.114 2.486-2.092 3.79-3.12.793-.742 1.874-1.528 2.048-2.603.148-2.06-.64-4.306-1.146-6.39zm4.933 6.785c-2.1 3.771-6.2 4.91-9.508 6.864-3.45 1.745-7.386 2.301-11 3.63-1.306.566-2.874.249-4.346.271-1.574-.062-2.986-.801-4.257-1.73-1.932-2.348-1.974-6.061-1.184-8.957.535-1.648.644-3.461 1.416-5.008 2.352-5.013 3.975-10.148 6.924-14.897.716-1.34.9-3.456 2.626-3.99.62-.096.767-.279 1.935-.087 1.597.62 3.604 1.775 4.536 2.485.933.721 7.652 7.636 10.573 11.877.724 1.123 1.4 2.349 2.01 3.547a9.81 9.81 0 0 1 .474 2.017c.114.851.778 2.87-.2 3.978zm2.604-6.506c-1.648-2.497-1.57-5.708-2.84-8.362-2.424-3.473-6.046-6.341-9.592-8.128-2.339-1.493-4.825-2.81-7.488-3.428-.452-.119-2.07-.325-3.077-.401-2.705.015-4.663 2.313-5.956 4.463-1.735 3.36-2.516 7.116-4.34 10.453-.03.176-.116.313-.197.473-1.588 3.124-3.066 6.296-5.125 9.229-1 1.843-2.145 3.729-2.171 5.875.196 2.248.583 4.647 2.722 6 1.962.968 3.951 1.965 6.112 2.327 1.242-.038 2.319.536 3.474.83 2.769.523 5.933.091 8.679-.398 3.16-.44 6.87.167 9.936-.985 2.513-1.244 5.178-2.1 7.458-3.905 1.348-1.49 3.331-2.78 4.059-4.655.77-3.283-.47-6.517-1.654-9.388z"/>
    </g>
</svg>
