<svg xmlns="http://www.w3.org/2000/svg" width="20" height="21" viewBox="0 0 20 21">
    <path fill="#ffffff" fill-rule="evenodd" d="M9.743 8.906c0 .625-.236 1.16-.708 1.608a2.387 2.387 0 0 1-1.702.672c-.663 0-1.23-.224-1.702-.672-.473-.447-.71-.983-.71-1.608 0-.632.237-1.17.71-1.613a2.398 2.398 0 0 1 1.702-.666c.662 0 1.23.222 1.702.666.472.443.708.981.708 1.613zm5.603 0c0 .625-.234 1.16-.703 1.608-.469.448-1.038.672-1.708.672-.662 0-1.23-.224-1.702-.672-.472-.447-.708-.983-.708-1.608 0-.632.236-1.17.708-1.613a2.398 2.398 0 0 1 1.702-.666c.67 0 1.24.222 1.708.666.469.443.703.981.703 1.613zm2.511 2.031V3.412c0-.655-.119-1.12-.357-1.394-.238-.275-.651-.412-1.239-.412H3.851c-.618 0-1.037.128-1.256.384-.22.256-.33.73-.33 1.422v7.594c.32.173.65.324.988.452.339.127.64.233.904.316.265.082.566.152.904.208.339.057.603.098.793.124.19.027.45.042.781.046l.653.005c.104 0 .314-.007.63-.022l.497-.023c.506-.007.86.094 1.06.305.045.045.082.079.112.101.194.188.42.38.68.576.053-.685.492-1.012 1.318-.982.037 0 .173.006.407.017l.48.023c.086.003.255.007.508.01.253.005.45 0 .591-.01l.609-.051c.264-.023.49-.055.68-.096l.692-.152c.272-.06.521-.134.748-.22.227-.087.478-.189.754-.305a8.81 8.81 0 0 0 .803-.39zm1.82-.056c-.901 1.121-2.285 2.069-4.152 2.844.625 2.144.539 3.893-.257 5.247-.491.85-1.172 1.407-2.043 1.67-.773.241-1.45.185-2.03-.169-.64-.384-.946-1-.916-1.85l-.011-3.68v-.01c-.06-.016-.15-.038-.274-.068a3.192 3.192 0 0 0-.262-.057l-.011 3.814c.03.858-.279 1.475-.926 1.851-.588.354-1.269.41-2.043.17-.87-.271-1.547-.836-2.031-1.693-.781-1.355-.863-3.096-.246-5.225-1.867-.775-3.251-1.723-4.151-2.844-.186-.278-.201-.515-.045-.71.156-.196.38-.193.67.01a1.321 1.321 0 0 1 .245.17V2.519c0-.542.175-1.004.525-1.388.35-.384.774-.575 1.272-.575h14.03c.498 0 .922.191 1.271.575.35.384.525.846.525 1.388v7.832l.234-.17c.29-.203.514-.206.67-.01.156.195.141.432-.045.71z"/>
</svg>
