<svg xmlns="http://www.w3.org/2000/svg" width="27" height="20" viewBox="0 0 27 20">
    <path fill="#ffffff" fill-rule="evenodd" d="M10.713 13.853l7.292-3.767-7.292-3.812v7.579zM13.5.865c1.688 0 3.317.023 4.89.068a97.24 97.24 0 0 1 3.457.143l1.1.06.256.023c.16.015.276.03.347.045.07.015.188.038.354.068.165.03.309.07.43.12.12.05.26.116.421.196.16.08.316.178.467.294a3.573 3.573 0 0 1 .67.678c.096.126.242.42.438.881.195.462.328.97.399 1.522a33.2 33.2 0 0 1 .188 2.057c.045.728.073 1.298.083 1.71v2.652c.01 1.456-.08 2.913-.271 4.37a6.012 6.012 0 0 1-.377 1.498c-.18.447-.341.756-.482.927l-.211.256c-.14.15-.286.284-.437.4-.15.115-.306.21-.467.286-.16.075-.301.138-.422.188-.12.05-.264.09-.43.12-.165.03-.286.053-.36.068a9.211 9.211 0 0 1-.595.068c-2.522.19-5.671.286-9.448.286-2.08-.02-3.885-.052-5.417-.098a117.444 117.444 0 0 1-3.02-.113l-.739-.06-.542-.06c-.362-.05-.636-.1-.821-.15a4.63 4.63 0 0 1-.769-.317 2.879 2.879 0 0 1-1.085-.896c-.095-.126-.24-.42-.437-.882a5.737 5.737 0 0 1-.399-1.522 33.2 33.2 0 0 1-.188-2.057A48.395 48.395 0 0 1 0 11.984V9.333c-.01-1.457.08-2.913.271-4.37.07-.552.196-1.052.377-1.499.18-.447.341-.756.482-.927l.211-.256c.14-.15.286-.284.437-.399.15-.116.306-.213.467-.294.16-.08.301-.145.422-.196.12-.05.264-.09.43-.12.165-.03.283-.053.353-.068.07-.015.186-.03.347-.045l.256-.023C6.574.956 9.723.865 13.5.865z"/>
</svg>
